<?xml version="1.0" standalone="no"?>
<!DOCTYPE svg PUBLIC "-//W3C//DTD SVG 20010904//EN"
 "http://www.w3.org/TR/2001/REC-SVG-20010904/DTD/svg10.dtd">
<svg version="1.0" xmlns="http://www.w3.org/2000/svg"
 width="500.000000pt" height="500.000000pt" viewBox="0 0 500.000000 500.000000"
 preserveAspectRatio="xMidYMid meet">
<metadata>
Created by potrace 1.14, written by Peter Selinger 2001-2017
</metadata>
<g transform="translate(0.000000,500.000000) scale(0.100000,-0.100000)"
fill="#000000" stroke="none">
<path d="M2370 4691 c0 -6 15 -11 33 -12 20 -1 7 -6 -38 -14 -80 -15 -155 -42
-235 -86 -46 -25 -43 -30 8 -12 6 3 12 1 12 -5 0 -6 -6 -13 -12 -16 -7 -3 1
-3 17 0 29 5 29 5 11 -10 -11 -9 -28 -16 -37 -16 -10 0 -21 -5 -25 -12 -5 -8
0 -9 17 -4 13 5 40 10 59 12 27 3 12 -7 -65 -45 -113 -55 -146 -78 -227 -158
-41 -39 -57 -62 -54 -77 2 -11 1 -15 -1 -8 -3 6 -8 12 -11 12 -7 0 -38 -61
-35 -70 1 -3 5 -14 9 -24 5 -13 4 -17 -3 -13 -6 4 -13 0 -17 -8 -3 -8 -11 -15
-17 -15 -8 0 -6 7 4 18 10 10 17 22 17 27 0 14 -29 -16 -36 -37 -6 -20 -29
-51 -67 -91 -23 -23 -32 -15 -52 44 -14 43 -14 42 -12 -67 3 -90 1 -111 -10
-107 -8 3 -13 -2 -13 -12 0 -17 -1 -17 -21 1 -37 33 -62 93 -56 136 6 44 -4
50 -22 12 -24 -53 -37 -148 -29 -219 4 -38 6 -71 4 -72 -8 -8 -99 28 -130 52
-34 26 -50 23 -23 -4 10 -10 7 -16 -12 -32 -21 -17 -22 -22 -10 -30 7 -5 16
-9 20 -9 3 0 28 -22 56 -50 l51 -49 -52 -49 c-28 -26 -77 -67 -108 -91 -32
-24 -58 -44 -59 -45 -4 -5 -13 -176 -10 -176 3 0 19 16 37 36 18 20 38 33 44
29 6 -3 10 3 10 15 0 11 7 37 15 58 23 54 33 27 30 -82 -1 -83 -23 -182 -45
-211 -14 -18 -39 -115 -30 -115 5 0 15 7 24 15 8 8 16 15 19 15 5 0 -3 -126
-13 -205 -7 -59 -8 -59 -9 -15 -2 35 -4 41 -11 25 -5 -11 -9 -40 -9 -64 -1
-37 -3 -42 -16 -31 -8 7 -21 31 -27 54 l-13 41 -5 -75 c-5 -80 9 -128 51 -165
19 -18 19 -17 19 43 0 35 4 62 10 62 14 0 12 -47 -5 -114 -17 -63 -14 -76 10
-56 13 11 15 6 15 -42 0 -99 12 -177 27 -183 10 -3 13 -1 10 9 -3 7 6 38 20
67 13 30 33 99 44 154 28 139 66 249 104 298 46 61 51 73 79 184 14 56 40 132
59 170 44 85 77 186 77 229 0 38 0 39 102 105 107 69 142 80 220 69 35 -5 69
-10 76 -10 7 0 11 -4 8 -8 -2 -4 97 -7 222 -6 172 1 243 5 295 18 87 20 134
22 118 2 -9 -11 -6 -12 16 -8 16 2 36 11 46 20 13 11 17 12 17 2 0 -14 -80
-96 -120 -122 l-25 -17 23 0 c32 -1 81 25 124 67 30 28 41 33 50 24 7 -7 21
-12 31 -12 38 0 76 -35 137 -126 35 -52 65 -94 67 -94 5 0 -46 99 -74 143 -14
23 -18 35 -10 30 27 -15 179 -198 209 -251 16 -28 33 -50 38 -47 4 3 22 -55
39 -129 24 -98 41 -149 67 -192 68 -112 88 -167 124 -334 35 -169 30 -410 -15
-596 -27 -113 -121 -404 -136 -418 -13 -14 -11 20 5 84 8 30 13 56 12 57 -4 4
-142 -161 -162 -194 -12 -19 -29 -65 -39 -102 -9 -36 -20 -75 -25 -86 -5 -11
-11 -27 -14 -35 -3 -8 -4 12 -3 46 2 33 6 64 9 70 3 5 8 23 12 39 7 28 6 29
-7 10 -20 -29 -37 -83 -37 -120 0 -74 -28 -130 -112 -224 -51 -58 -84 -87 -89
-80 -4 8 -9 5 -13 -9 -6 -19 -34 -37 -43 -28 -2 2 3 21 11 41 9 21 16 40 16
42 0 3 -23 -22 -50 -55 -66 -77 -143 -133 -212 -153 -24 -7 -29 -5 -24 6 3 9
-1 15 -10 15 -8 0 -20 11 -26 25 -6 14 -15 25 -20 25 -7 0 -13 -49 -9 -73 1
-5 -3 -6 -9 -2 -5 3 -10 11 -10 16 0 6 -6 17 -14 25 -19 18 -30 1 -16 -25 16
-31 13 -71 -6 -71 -13 0 -15 7 -10 33 3 17 1 39 -4 47 -8 12 -10 11 -10 -7 0
-29 -7 -29 -74 2 -30 14 -59 25 -64 25 -5 0 -21 9 -36 21 -25 20 -26 20 -26 1
0 -10 9 -27 20 -37 11 -10 18 -20 16 -22 -7 -7 -86 46 -146 97 -30 26 -77 62
-105 81 -27 18 -71 51 -97 72 -34 28 -48 34 -48 23 0 -26 -26 -19 -77 20 -83
63 -100 80 -129 125 l-28 44 -6 -30 -6 -30 -18 40 c-10 22 -19 45 -20 50 -13
61 -31 70 -44 23 l-8 -33 -7 30 c-4 17 -16 41 -27 55 l-20 25 10 -30 c6 -16
19 -45 30 -65 10 -19 30 -60 44 -91 20 -44 57 -86 169 -195 189 -184 274 -257
302 -260 21 -2 200 -90 274 -135 33 -19 35 -20 100 -3 69 18 123 14 118 -9 -4
-21 44 -9 130 33 44 22 87 40 95 40 8 0 39 18 69 41 30 22 63 45 74 51 l20 11
-20 -23 -20 -23 25 13 c13 7 47 38 75 68 27 31 82 87 121 126 39 39 84 91 98
114 15 24 48 72 73 105 25 34 59 89 74 122 l28 60 1 -80 c0 -108 27 -329 49
-418 15 -57 27 -81 60 -115 44 -46 46 -53 31 -152 -19 -131 -22 -146 -41 -189
-10 -24 -19 -45 -19 -47 0 -3 31 11 69 31 l70 35 7 61 c7 64 15 66 34 7 l11
-38 32 17 c123 62 356 252 526 427 52 53 54 56 41 81 -15 27 -187 190 -232
219 -49 32 -33 -5 27 -60 33 -31 55 -60 55 -73 0 -32 -12 -25 -50 29 -36 50
-71 78 -50 40 5 -10 10 -31 10 -47 0 -18 3 -24 9 -15 4 7 6 -11 3 -40 -2 -30
1 -72 8 -93 6 -22 13 -74 15 -115 5 -87 2 -78 -41 144 -13 71 -26 131 -28 135
-2 3 -6 29 -10 58 -3 28 -8 57 -11 65 -3 7 -65 44 -138 81 -72 37 -150 78
-172 91 -22 12 -73 35 -114 51 l-73 28 6 36 c3 20 6 46 6 59 0 15 5 22 13 19
6 -2 11 -10 9 -16 -1 -6 3 -11 8 -11 6 0 10 6 9 13 -4 19 12 108 26 152 7 23
16 85 19 138 3 53 15 168 26 254 11 87 21 205 22 263 1 102 3 107 45 192 24
47 50 89 58 92 9 3 22 -9 37 -32 21 -34 23 -47 20 -155 -2 -98 -7 -128 -28
-185 -15 -37 -37 -107 -50 -156 -28 -107 -47 -157 -84 -217 -19 -31 -25 -51
-19 -60 7 -11 9 -10 9 4 0 10 7 20 15 23 8 4 12 10 9 15 -3 5 -1 9 5 9 6 0 8
-12 5 -30 -6 -26 -4 -30 15 -30 11 0 21 5 21 10 0 6 7 10 15 10 10 0 15 10 15
26 l0 26 -20 -23 c-17 -21 -19 -21 -13 -4 3 11 11 23 15 26 13 8 58 -1 58 -12
0 -5 14 -9 30 -9 22 0 30 -5 30 -18 0 -11 9 -27 20 -37 13 -11 18 -25 14 -37
-4 -15 0 -18 34 -18 51 0 86 -28 113 -88 11 -26 27 -61 35 -79 8 -17 14 -37
14 -45 0 -8 7 -23 15 -34 8 -10 15 -26 15 -34 0 -9 5 -21 12 -28 11 -11 16
-23 52 -118 8 -23 30 -72 49 -110 30 -62 54 -132 60 -174 4 -21 49 -100 58
-100 4 0 39 42 77 93 254 333 410 714 461 1127 10 73 9 76 -20 124 -17 27 -35
58 -40 70 -5 12 -27 50 -49 85 -22 34 -40 65 -40 67 0 6 -61 105 -123 199 -50
77 -81 118 -184 245 -72 88 -153 180 -178 200 -16 14 -61 55 -100 93 -38 37
-105 95 -149 130 -143 113 -138 107 -144 168 -5 50 -4 53 12 40 33 -28 28 0
-12 61 -23 35 -57 81 -77 102 -19 22 -35 41 -35 42 0 2 12 -4 28 -12 35 -18
56 -18 73 2 11 14 11 18 -4 29 -42 30 -127 108 -127 115 0 4 12 11 26 14 27 7
74 48 74 66 0 5 -14 10 -32 10 -17 0 -56 12 -87 28 -67 32 -211 166 -257 238
-18 29 -47 62 -64 75 -17 13 -45 36 -63 50 -112 89 -264 150 -456 183 -105 18
-124 26 -65 27 l39 1 -50 14 c-65 19 -355 32 -355 15z m840 -227 l25 -15 -25
7 c-14 3 -32 10 -40 15 -13 7 -13 8 0 8 8 0 26 -6 40 -15z m-1376 -295 c-6
-11 -24 -2 -24 11 0 5 7 7 15 4 8 -4 12 -10 9 -15z m186 -19 c8 -5 11 -10 5
-10 -5 0 -17 5 -25 10 -8 5 -10 10 -5 10 6 0 17 -5 25 -10z m-45 -70 c3 -5 2
-10 -4 -10 -5 0 -13 5 -16 10 -3 6 -2 10 4 10 5 0 13 -4 16 -10z m60 -10 l20
-9 -20 0 c-11 0 -27 4 -35 9 -13 9 -13 10 0 9 8 0 24 -4 35 -9z m-768 -712
c-3 -8 -6 -5 -6 6 -1 11 2 17 5 13 3 -3 4 -12 1 -19z m2412 -1397 c9 -6 10
-11 2 -15 -6 -4 -11 -2 -11 4 0 6 -4 8 -10 5 -5 -3 -10 -1 -10 4 0 13 10 14
29 2z m-363 -433 c-14 -29 -25 -45 -26 -35 0 22 39 101 47 94 3 -3 -6 -30 -21
-59z m774 -617 c0 -6 -4 -13 -10 -16 -5 -3 -10 1 -10 9 0 9 5 16 10 16 6 0 10
-4 10 -9z"/>
<path d="M2042 4666 c-29 -8 -55 -16 -58 -19 -12 -12 90 5 109 18 25 18 20 18
-51 1z"/>
<path d="M1428 4233 c7 -3 16 -2 19 1 4 3 -2 6 -13 5 -11 0 -14 -3 -6 -6z"/>
<path d="M1283 4196 c4 -10 7 -22 7 -27 0 -5 5 -9 11 -9 15 0 7 43 -10 48 -10
3 -12 0 -8 -12z"/>
<path d="M1240 4154 c0 -3 10 -14 23 -25 23 -19 52 -26 42 -9 -8 13 -65 43
-65 34z"/>
<path d="M1256 4081 c-12 -5 -16 -10 -9 -14 13 -8 43 2 43 14 0 10 -8 10 -34
0z"/>
<path d="M1116 3521 c-15 -10 -45 -21 -65 -25 -43 -7 -112 -56 -230 -164 -225
-205 -351 -345 -478 -532 -43 -62 -59 -88 -69 -110 -4 -8 -19 -33 -34 -55 -84
-130 -93 -155 -85 -265 23 -331 102 -631 239 -904 74 -147 191 -336 208 -336
5 0 37 26 71 59 38 36 86 69 125 86 45 20 64 34 68 51 3 13 12 28 20 35 8 6
14 19 14 28 0 9 7 29 15 45 8 15 15 33 15 38 0 6 6 24 14 41 7 18 26 61 41 97
63 149 69 159 99 170 30 10 33 9 55 -30 8 -13 21 -60 63 -227 6 -24 16 -43 23
-43 6 0 52 13 101 30 164 55 140 33 -51 -46 -161 -66 -478 -224 -451 -224 18
0 19 -8 12 -137 -4 -76 -10 -162 -13 -191 l-6 -53 64 -60 c82 -77 186 -163
271 -223 l68 -47 6 40 c4 23 10 41 14 41 4 0 18 -26 30 -58 31 -76 34 -79 110
-116 l66 -33 -28 53 c-37 68 -118 261 -118 281 0 16 49 82 107 143 31 34 33
41 47 165 27 237 30 347 12 401 -14 43 -23 90 -25 131 -1 6 -11 13 -23 15 -13
2 -23 8 -23 13 -2 24 -17 91 -24 100 -5 6 -13 36 -19 68 -9 45 -21 69 -52 105
-41 45 -95 150 -120 227 -7 22 -28 70 -46 106 -51 103 -66 168 -62 267 4 98
22 147 67 176 l29 20 -20 45 c-36 83 -46 144 -53 326 -5 148 -4 189 9 229 8
28 12 55 7 60 -14 19 -22 67 -13 79 16 21 61 127 54 127 -4 0 -20 -9 -36 -19z"/>
<path d="M1745 2847 c-49 -19 -89 -44 -109 -66 -17 -19 -17 -21 -3 -21 10 0
17 4 17 10 0 5 32 26 70 45 39 19 70 37 70 40 0 7 -11 5 -45 -8z"/>
<path d="M1815 2850 c-11 -4 -46 -24 -77 -43 l-57 -34 79 -7 c44 -3 122 -17
172 -30 92 -24 318 -44 318 -29 0 16 -82 103 -91 97 -6 -3 -16 -1 -23 5 -18
15 -200 42 -235 35 -16 -4 -32 -1 -35 5 -8 13 -23 13 -51 1z"/>
<path d="M3009 2840 c-110 -10 -208 -33 -220 -52 -5 -7 -9 -20 -9 -28 0 -8 -7
-24 -15 -34 -23 -31 -18 -36 28 -31 180 20 242 29 315 46 45 10 115 19 155 19
53 0 68 3 57 11 -12 8 -7 9 18 6 17 -2 32 -2 32 -1 0 7 -95 58 -114 61 -54 9
-160 10 -247 3z m-179 -44 c0 -2 -8 -10 -17 -17 -16 -13 -17 -12 -4 4 13 16
21 21 21 13z"/>
<path d="M1810 2631 c-36 -4 -74 -13 -85 -20 l-20 -12 20 5 c11 3 47 7 80 10
59 6 60 6 25 -8 -19 -8 -68 -30 -108 -49 l-73 -35 46 -17 c25 -10 45 -21 45
-25 0 -13 117 -70 141 -69 17 1 10 5 -21 15 -42 13 -120 67 -120 83 0 6 103
61 114 61 3 0 7 -13 11 -30 9 -42 40 -77 78 -90 29 -9 40 -7 79 15 54 30 76
71 58 106 l-12 22 28 -21 c16 -11 45 -36 63 -56 42 -43 57 -46 37 -8 -17 31
-81 94 -113 111 -29 15 -188 22 -273 12z m126 -68 c-11 -11 -19 6 -11 24 8 17
8 17 12 0 3 -10 2 -21 -1 -24z"/>
<path d="M2932 2630 c-61 -9 -91 -26 -128 -75 -18 -24 -24 -39 -17 -46 7 -7
15 -6 24 3 8 8 31 26 52 42 33 25 37 26 37 10 0 -30 35 -79 73 -103 l36 -22
38 19 c51 27 77 56 70 82 -3 13 0 23 9 27 18 7 94 -42 94 -61 0 -27 -57 -63
-123 -76 l-42 -8 41 -1 c30 -1 55 8 98 34 32 19 61 35 64 35 2 0 20 10 39 21
l35 22 -69 27 c-37 15 -84 35 -103 43 l-35 16 30 0 c17 0 51 -4 78 -8 67 -11
59 4 -10 18 -62 12 -209 13 -291 1z m56 -41 c-2 -6 -8 -10 -13 -10 -5 0 -11 4
-13 10 -2 6 4 11 13 11 9 0 15 -5 13 -11z"/>
<path d="M3694 2558 l-19 -23 23 19 c12 11 22 21 22 23 0 8 -8 2 -26 -19z"/>
<path d="M1140 2566 c0 -2 7 -7 16 -10 8 -3 12 -2 9 4 -6 10 -25 14 -25 6z"/>
<path d="M1304 2244 c3 -9 6 -46 6 -82 0 -42 4 -62 9 -53 5 7 6 22 3 33 -2 11
1 30 8 44 10 18 11 30 2 49 -12 27 -38 35 -28 9z"/>
<path d="M1360 2108 c0 -7 5 -20 10 -28 8 -12 10 -11 10 7 0 12 -4 25 -10 28
-5 3 -10 0 -10 -7z"/>
<path d="M1386 1965 c15 -77 37 -152 55 -185 11 -19 17 -26 13 -15 -25 75 -44
139 -44 153 -1 10 -7 31 -15 47 l-14 30 5 -30z"/>
<path d="M2780 1973 c0 -4 5 -15 10 -23 8 -13 10 -13 10 2 0 9 -4 20 -10 23
-5 3 -10 3 -10 -2z"/>
<path d="M1332 1940 c0 -19 2 -27 5 -17 2 9 2 25 0 35 -3 9 -5 1 -5 -18z"/>
<path d="M3711 1894 c0 -11 3 -14 6 -6 3 7 2 16 -1 19 -3 4 -6 -2 -5 -13z"/>
<path d="M2608 1858 c-21 -12 -38 -24 -38 -27 0 -9 137 -7 145 1 6 6 -51 48
-65 48 -3 0 -22 -10 -42 -22z"/>
<path d="M2350 1847 l-35 -22 59 -3 c32 -2 66 0 75 3 13 5 12 9 -9 25 -32 25
-47 25 -90 -3z"/>
<path d="M2750 1550 c0 -5 12 -10 28 -9 24 0 25 1 7 9 -27 12 -35 12 -35 0z"/>
<path d="M3517 1553 c-4 -3 -7 -11 -7 -17 0 -6 5 -5 12 2 6 6 9 14 7 17 -3 3
-9 2 -12 -2z"/>
<path d="M2718 1543 c7 -3 16 -2 19 1 4 3 -2 6 -13 5 -11 0 -14 -3 -6 -6z"/>
<path d="M2895 1510 c16 -19 45 -52 64 -72 19 -21 30 -38 23 -38 -9 0 -9 -6 0
-25 14 -30 19 -25 42 37 23 62 13 96 -27 89 -5 -1 -6 3 -3 8 4 5 2 12 -3 15
-5 3 -11 -3 -14 -14 -4 -17 -9 -18 -37 -10 -18 5 -42 17 -54 27 -11 10 -8 2 9
-17z"/>
<path d="M3030 1521 c0 -5 5 -13 10 -16 6 -3 10 -25 11 -48 1 -35 2 -38 8 -17
4 14 3 37 -2 53 -9 28 -27 46 -27 28z"/>
<path d="M1965 1469 c-4 -6 -5 -12 -2 -15 2 -3 7 2 10 11 7 17 1 20 -8 4z"/>
<path d="M3590 1466 c0 -2 7 -7 16 -10 8 -3 12 -2 9 4 -6 10 -25 14 -25 6z"/>
<path d="M2075 1440 c-16 -11 -33 -29 -38 -42 -8 -21 -7 -21 13 -3 13 11 41
20 75 23 30 2 55 9 55 15 0 6 -16 7 -42 3 -36 -6 -40 -5 -28 9 17 20 2 18 -35
-5z"/>
<path d="M2775 1453 c-27 -1 -88 -10 -135 -18 -47 -8 -105 -17 -130 -19 -25
-2 -13 -2 25 0 268 14 384 15 404 5 29 -16 26 3 -4 23 -24 15 -43 17 -160 9z"/>
<path d="M2410 1238 c0 -4 9 -13 20 -21 12 -8 20 -20 18 -28 -4 -17 42 -21 61
-5 12 8 13 8 7 -1 -4 -7 -3 -13 3 -13 5 0 16 -2 24 -6 10 -3 16 4 20 25 4 17
13 31 21 31 7 0 18 6 24 13 9 10 -9 13 -94 13 -57 0 -104 -3 -104 -8z"/>
<path d="M748 1210 c-18 -17 -24 -27 -13 -21 33 17 59 40 53 47 -3 3 -21 -9
-40 -26z"/>
<path d="M2518 1153 c-27 -7 -21 -28 7 -28 14 0 25 5 25 12 0 15 -11 20 -32
16z"/>
<path d="M3127 899 c-7 -52 3 -140 14 -133 5 3 9 19 9 35 0 17 9 49 20 71 24
50 26 75 2 33 l-17 -30 -3 25 c-6 43 -19 43 -25 -1z"/>
<path d="M3053 767 c-22 -53 -44 -127 -38 -127 11 0 75 131 75 153 0 41 -13
32 -37 -26z"/>
<path d="M1861 779 c-1 -19 5 -44 13 -55 24 -32 28 -9 7 42 l-20 49 0 -36z"/>
<path d="M1961 709 c-1 -32 4 -51 17 -62 26 -24 35 -21 21 6 -7 12 -18 40 -25
62 l-13 40 0 -46z"/>
<path d="M2968 681 c-9 -11 -21 -29 -27 -40 -10 -17 -9 -20 4 -15 8 4 15 11
15 18 0 6 5 4 10 -4 5 -8 10 -13 10 -10 0 3 4 20 9 38 11 36 3 41 -21 13z"/>
<path d="M2047 593 c6 -19 35 -46 67 -65 11 -6 3 9 -18 36 -39 47 -60 59 -49
29z"/>
<path d="M2886 555 c-9 -13 -16 -29 -16 -35 0 -5 -4 -10 -8 -10 -8 0 -34 -46
-55 -95 -8 -20 -8 -20 11 0 11 11 18 23 16 26 -2 4 3 10 12 13 9 4 14 9 10 13
-3 3 5 20 18 37 22 30 42 76 33 76 -3 0 -12 -11 -21 -25z"/>
<path d="M2464 286 c11 -9 24 -16 30 -16 12 0 7 5 -24 19 -24 11 -24 11 -6 -3z"/>
<path d="M2610 269 c-14 -6 -43 -8 -65 -5 -31 4 -36 2 -21 -6 21 -12 93 -5
109 11 13 13 10 13 -23 0z"/>
</g>
</svg>
